<svg id="Camada_1" data-name="Camada 1" xmlns="http://www.w3.org/2000/svg" viewBox="0 0 1202.7 105.91"><title>logo-dPrancheta 1</title><path d="M40.72,24.62a10.09,10.09,0,0,0-6.67,2.16A7.63,7.63,0,0,0,31.45,33a8.94,8.94,0,0,0,2.41,6.53,15.67,15.67,0,0,0,6.28,3.81q3.87,1.33,8.64,2.54t9.45,2.92a41.5,41.5,0,0,1,8.57,4.25,18.75,18.75,0,0,1,6.29,7.18,23.87,23.87,0,0,1,2.41,11.1q0,11.31-9.2,19.36T42.05,98.75q-15,0-24.25-7.23T8.6,71H31.7q.89,10.67,10.92,10.67A10.39,10.39,0,0,0,50,79.14a8.19,8.19,0,0,0,2.67-6.28,8.45,8.45,0,0,0-2.41-6.22A16.79,16.79,0,0,0,44,62.83q-3.87-1.39-8.63-2.6a87.71,87.71,0,0,1-9.46-3A45.94,45.94,0,0,1,17.29,53,18.15,18.15,0,0,1,11,45.88a23.46,23.46,0,0,1-2.41-11Q8.6,22.47,17.87,15T41.54,7.48q14.4,0,23.3,6.54T74.1,34.65H50.49a12,12,0,0,0-3.11-7.43A9.05,9.05,0,0,0,40.72,24.62Z"/><path d="M86.54,25.25V8.75h70.33v16.5H132.5V97.87H110.79V25.25Z"/><path d="M226.43,97.87l-5-15h-32l-5,15h-23.1l31-89.37h26.41l30.84,89.37ZM195,66.38H216L205.49,34.65Z"/><path d="M282,63.21V97.87H260.33V8.75h35.16q15.5,0,24.12,8A25.33,25.33,0,0,1,328.24,36a27.76,27.76,0,0,1-4.69,15.11q-4.71,7.37-15.36,10.41L330,97.87H304.63L284.57,63.21Zm0-38V46.71h13.45a10.42,10.42,0,0,0,7.81-2.92,10.54,10.54,0,0,0,2.85-7.68,10.84,10.84,0,0,0-2.91-7.81,10.25,10.25,0,0,0-7.75-3.05Z"/><path d="M366.83,97.87h-21.7V8.75h21.7v39.1l29.46-39.1h28.43L388,53.31l36.69,44.56H396.79l-30-39.36Z"/><path d="M490.48,8.5V25H458.23V44.17h28.44v16.5H458.23V81.36h32.25V97.87h-54V8.5Z"/><path d="M553.57,33.38a12.89,12.89,0,0,0,2.73,8.5,16.09,16.09,0,0,0,7,4.89,72.48,72.48,0,0,0,9.52,2.73q5.21,1.14,10.41,2.54a47.88,47.88,0,0,1,9.52,3.62,17.45,17.45,0,0,1,7.05,6.79,21.69,21.69,0,0,1,2.73,11.3,24,24,0,0,1-7.49,17.52q-7.5,7.49-20.5,7.48t-21.14-5.83a18.41,18.41,0,0,1-8.12-15.75h9.39a14.37,14.37,0,0,0,5.2,10.1q4.7,4,14,4t14.85-4.83a15.25,15.25,0,0,0,5.53-12c0-4.79-1.7-8.38-5.08-10.8a31.1,31.1,0,0,0-12.25-5q-7.17-1.39-14.35-3.24a25.19,25.19,0,0,1-12.25-7.17q-5.07-5.32-5.07-15.49A21.25,21.25,0,0,1,552.87,16q7.54-6.6,19.93-6.6t19.49,5.71a23.63,23.63,0,0,1,8.63,15.23h-10A13.67,13.67,0,0,0,585.56,21q-4.83-4-13.2-4t-13.59,4.19Q553.56,25.38,553.57,33.38Z"/><path d="M628.15,86.12q-12.89-12.63-12.89-32.05t12.89-32Q641,9.39,659.88,9.39T691.56,22q12.81,12.63,12.82,32.05T691.56,86.12q-12.82,12.64-31.68,12.63T628.15,86.12Zm57-5.2q10.08-10.22,10.09-26.85t-10-26.79q-10-10.16-25.39-10.15T634.37,27.28q-10.1,10.17-10.09,26.79t10.09,26.85q10.1,10.22,25.39,10.22T685.15,80.92Z"/><path d="M718.85,10.27h8.88V91H759.6v6.86H718.85Z"/><path d="M771.66,68.42V10.27h8.88V68.42q0,11.67,6.29,17.32T804,91.39q10.92,0,17.13-5.65t6.23-17.32V10.27h8.88V68.42q0,15-9,22.65T804,98.75q-14.22,0-23.3-7.68T771.66,68.42Z"/><path d="M851.88,17.51V10.27H906.6v7.24h-23V97.87h-8.76V17.51Z"/><path d="M922.34,97.87V10.27h8.88v87.6Z"/><path d="M958.71,86.12q-12.9-12.63-12.89-32.05t12.89-32Q971.58,9.39,990.44,9.39T1022.11,22q12.83,12.63,12.83,32.05t-12.83,32.05q-12.81,12.64-31.67,12.63T958.71,86.12Zm57-5.2q10.09-10.22,10.1-26.85t-10-26.79q-10-10.16-25.39-10.15T964.93,27.28q-10.09,10.17-10.1,26.79t10.1,26.85Q975,91.14,990.32,91.14T1015.7,80.92Z"/><path d="M1107.42,10.27h8.89v87.6h-8.89l-49.13-73.38V97.87h-8.88V10.27h8.88l49.13,73.38Z"/><path d="M1141.69,33.38a12.89,12.89,0,0,0,2.73,8.5,16.13,16.13,0,0,0,7,4.89A72.48,72.48,0,0,0,1161,49.5q5.21,1.14,10.41,2.54a47.88,47.88,0,0,1,9.52,3.62,17.45,17.45,0,0,1,7,6.79,21.69,21.69,0,0,1,2.73,11.3,24,24,0,0,1-7.49,17.52q-7.5,7.49-20.51,7.48t-21.13-5.83a18.42,18.42,0,0,1-8.13-15.75h9.4a14.33,14.33,0,0,0,5.2,10.1q4.7,4,14,4t14.85-4.83a15.27,15.27,0,0,0,5.52-12c0-4.79-1.69-8.38-5.07-10.8a31.1,31.1,0,0,0-12.25-5q-7.18-1.39-14.35-3.24a25.14,25.14,0,0,1-12.25-7.17q-5.07-5.32-5.08-15.49A21.26,21.26,0,0,1,1141,16q7.55-6.6,19.93-6.6t19.48,5.71a23.6,23.6,0,0,1,8.64,15.23h-10a13.67,13.67,0,0,0-5.33-9.33q-4.83-4-13.21-4t-13.58,4.19Q1141.7,25.38,1141.69,33.38Z"/></svg>