<svg id="Capa_1" data-name="Capa 1" xmlns="http://www.w3.org/2000/svg" viewBox="0 0 512 512"><defs><style>.cls-1{fill:#ff2069;}</style></defs><title>logo-dPrancheta 1</title><path class="cls-1" d="M130.38,141.81H16.62A16.58,16.58,0,0,0,0,158.43v328.7a16.58,16.58,0,0,0,16.62,16.62H130.38A16.58,16.58,0,0,0,147,487.13V158.43A16.52,16.52,0,0,0,130.38,141.81ZM113.77,470.52H33.23V175h80.54Z"/><path class="cls-1" d="M495.38,229H381.62A16.58,16.58,0,0,0,365,245.63v241.5a16.58,16.58,0,0,0,16.62,16.62H495.38A16.58,16.58,0,0,0,512,487.13V245.63A16.58,16.58,0,0,0,495.38,229Zm-97.15,33.23h25.83l-25.83,25.83Zm0,52.28,52.18-52.17h26.35l-78.53,78.52V314.52Zm80.54,156H452.84l25.93-25.93Zm0-52.28-52.28,52.28H400.14L478.66,392v26.25Zm0-52.6-80.54,80.53V419.82l80.54-80.53Zm0-52.7-80.54,80.53V367.12l80.54-80.54Z"/><path class="cls-1" d="M312.94,8.25H199.06a16.58,16.58,0,0,0-16.61,16.62V487.13a16.58,16.58,0,0,0,16.61,16.62H312.83a16.58,16.58,0,0,0,16.62-16.62V24.87A16.43,16.43,0,0,0,312.94,8.25Z"/></svg>