<svg id="Capa_1" data-name="Capa 1" xmlns="http://www.w3.org/2000/svg" viewBox="0 0 512 512"><defs><style>.cls-1{fill:#ff2069;}</style></defs><title>logo-dPrancheta 1</title><path class="cls-1" d="M256,288.76c35.32,0,118.38-42.52,118.38-144.38C374.38,64.64,363.62,0,256,0S137.62,64.64,137.62,144.38C137.62,246.24,220.67,288.76,256,288.76ZM155.31,120.28c8.32-16.08,26.31-34.66,65-33.84,0,0,23,55.93,136.25,30.81.45,8.93.6,18.05.6,27.13,0,49.79-22,80.64-40.43,97.75-23.24,21.57-49.05,29.39-60.72,29.39s-37.48-7.82-60.72-29.39c-18.44-17.11-40.43-48-40.43-97.75C154.85,136.32,155,128.24,155.31,120.28Z"/><path class="cls-1" d="M475.77,436.83c-6-37.58-18.48-86-43.44-103.19-17-11.75-76.5-43.52-101.88-57.08l-.44-.24a8.29,8.29,0,0,0-9,.8A107.93,107.93,0,0,1,277.67,298a8.3,8.3,0,0,0-5.95,5.16L256,344.61l-15.72-41.42a8.31,8.31,0,0,0-5.95-5.16A107.93,107.93,0,0,1,191,277.12a8.29,8.29,0,0,0-9-.8c-25.09,13.41-85.27,45.82-102.25,57.27C51,352.94,38.45,423,36.23,436.83a8.21,8.21,0,0,0,.37,4.08C37.63,443.82,64,512,256,512s218.37-68.18,219.4-71.09A8.21,8.21,0,0,0,475.77,436.83Zm-88.48-22.94-37.58,11.72-37.58-11.72V393.67h75.16Z"/></svg>