<svg id="Capa_1" data-name="Capa 1" xmlns="http://www.w3.org/2000/svg" viewBox="0 0 512 512"><defs><style>.cls-1{fill:#ff2069;}</style></defs><title>logo-dPrancheta 1</title><path class="cls-1" d="M503.71,123.58l-241-122a15,15,0,0,0-13.42,0l-241,122a15,15,0,0,0,0,26.84l241,120a15,15,0,0,0,13.42,0l241-120a15,15,0,0,0,0-26.84Z"/><path class="cls-1" d="M503.71,363.58l-60.62-29.81-167,83.48a45,45,0,0,1-40.26,0l-168-83.48L8.29,363.58a15,15,0,0,0,0,26.84l241,120a15,15,0,0,0,13.42,0l241-120a15,15,0,0,0,0-26.84Z"/><path class="cls-1" d="M503.71,243.58l-60.62-29.81-167,83.48a45,45,0,0,1-40.26,0l-168-83.48L8.29,243.58a15,15,0,0,0,0,26.84l241,120a15,15,0,0,0,13.42,0l241-120a15,15,0,0,0,0-26.84Z"/></svg>